<?xml version="1.0" encoding="UTF-8" standalone="no"?>
<!-- Created with Inkscape (http://www.inkscape.org/) -->

<svg
   xmlns:dc="http://purl.org/dc/elements/1.1/"
   xmlns:cc="http://creativecommons.org/ns#"
   xmlns:rdf="http://www.w3.org/1999/02/22-rdf-syntax-ns#"
   xmlns:svg="http://www.w3.org/2000/svg"
   xmlns="http://www.w3.org/2000/svg"
   xmlns:sodipodi="http://sodipodi.sourceforge.net/DTD/sodipodi-0.dtd"
   xmlns:inkscape="http://www.inkscape.org/namespaces/inkscape"
   width="192mm"
   height="192mm"
   viewBox="0 0 192 192"
   version="1.1"
   id="svg4610"
   inkscape:version="0.92.2 5c3e80d, 2017-08-06"
   sodipodi:docname="ic_begin_activity_192px.svg"
   inkscape:export-filename="/home/roman/workspace/android/projects/Etroped/app/src/main/res/drawable/ic_begin_activity_192px.png"
   inkscape:export-xdpi="4"
   inkscape:export-ydpi="4">
  <defs
     id="defs4604" />
  <sodipodi:namedview
     id="base"
     pagecolor="#ffffff"
     bordercolor="#666666"
     borderopacity="1.0"
     inkscape:pageopacity="0.0"
     inkscape:pageshadow="2"
     inkscape:zoom="0.35"
     inkscape:cx="-245.71429"
     inkscape:cy="560"
     inkscape:document-units="mm"
     inkscape:current-layer="layer1"
     showgrid="false"
     inkscape:window-width="1920"
     inkscape:window-height="1021"
     inkscape:window-x="0"
     inkscape:window-y="31"
     inkscape:window-maximized="1" />
  <metadata
     id="metadata4607">
    <rdf:RDF>
      <cc:Work
         rdf:about="">
        <dc:format>image/svg+xml</dc:format>
        <dc:type
           rdf:resource="http://purl.org/dc/dcmitype/StillImage" />
        <dc:title></dc:title>
      </cc:Work>
    </rdf:RDF>
  </metadata>
  <g
     inkscape:label="Capa 1"
     inkscape:groupmode="layer"
     id="layer1"
     transform="translate(0,-105)">
    <path
       style="stroke-width:6.61458588"
       inkscape:connector-curvature="0"
       d="m 105.44048,115.11786 c -25.598501,0 -46.302161,20.70367 -46.302161,46.30214 0,34.7265 46.302161,85.98953 46.302161,85.98953 0,0 46.30215,-51.26303 46.30215,-85.98953 0,-25.59848 -20.70375,-46.30214 -46.30215,-46.30214 z m 0,62.83852 c -9.128154,0 -16.536517,-7.40826 -16.536517,-16.53638 0,-9.12813 7.408363,-16.53649 16.536517,-16.53649 9.12814,0 16.53652,7.40836 16.53652,16.53649 0,9.12812 -7.40838,16.53638 -16.53652,16.53638 z"
       id="path2" />
    <g
       id="g4632"
       transform="translate(-5.9720237,48.910116)">
      <path
         id="path4"
         d="m 66.344304,188.02003 c 3.38854,0 6.16099,-2.77245 6.16099,-6.16105 0,-3.38854 -2.77245,-6.16099 -6.16099,-6.16099 -3.38859,0 -6.16105,2.77245 -6.16105,6.16099 0,3.3886 2.77246,6.16105 6.16105,6.16105 z m -32.34531,20.02327 c -8.62544,0 -15.40257,6.77713 -15.40257,15.40251 0,8.62544 6.77713,15.40257 15.40257,15.40257 8.62538,0 15.40251,-6.77713 15.40251,-15.40257 0,-8.62538 -6.77713,-15.40251 -15.40251,-15.40251 z m 0,26.18432 c -5.85298,0 -10.78181,-4.92883 -10.78181,-10.78181 0,-5.85292 4.92883,-10.78175 10.78181,-10.78175 5.85292,0 10.78175,4.92883 10.78175,10.78175 0,5.85298 -4.92883,10.78181 -10.78175,10.78181 z m 17.86689,-30.80508 7.39322,-7.39321 2.46444,2.46438 c 4.00462,4.00468 9.24152,6.46907 15.71058,6.46907 v -6.161 c -4.62076,0 -8.31736,-1.8483 -11.08982,-4.62076 l -5.85298,-5.85298 c -1.54023,-1.23216 -3.08052,-1.8483 -4.92883,-1.8483 -1.8483,0 -3.38854,0.61614 -4.31269,1.8483 l -8.62543,8.62544 c -1.23217,1.23222 -1.84831,2.77245 -1.84831,4.31269 0,1.8483 0.61614,3.38859 1.84831,4.31275 l 9.85765,8.62537 v 15.40257 h 6.161 v -19.09917 z m 25.26017,4.62076 c -8.62543,0 -15.40251,6.77713 -15.40251,15.40251 0,8.62544 6.77708,15.40257 15.40251,15.40257 8.62544,0 15.40251,-6.77713 15.40251,-15.40257 0,-8.62538 -6.77707,-15.40251 -15.40251,-15.40251 z m 0,26.18432 c -5.85298,0 -10.78175,-4.92883 -10.78175,-10.78181 0,-5.85292 4.92877,-10.78175 10.78175,-10.78175 5.85298,0 10.78175,4.92883 10.78175,10.78175 0,5.85298 -4.92877,10.78181 -10.78175,10.78181 z"
         inkscape:connector-curvature="0"
         style="stroke-width:3.08050585" />
      <path
         id="path4-8"
         d="m 168.83324,190.20814 c 3.05743,0 5.55893,-2.5015 5.55893,-5.55892 0,-3.05737 -2.5015,-5.55887 -5.55893,-5.55887 -3.05737,0 -5.55887,2.5015 -5.55887,5.55887 0,3.05742 2.5015,5.55892 5.55887,5.55892 z m -10.006,38.63424 2.77947,-12.22953 5.83683,5.55887 v 16.67666 h 5.55887 v -20.84583 l -5.83683,-5.55887 1.66766,-8.33833 c 3.6133,4.16916 9.17217,6.94863 15.28696,6.94863 v -5.55893 c -5.28096,0 -9.72803,-2.77941 -11.95162,-6.67066 l -2.77941,-4.44708 c -1.1118,-1.66767 -2.77946,-2.77946 -4.72509,-2.77946 -0.83384,0 -1.38971,0.27786 -2.22354,0.27786 l -14.45313,6.11474 v 13.06342 h 5.55893 v -9.45013 l 5.00299,-1.94563 -4.44712,22.5135 -13.6193,-2.77941 -1.11174,5.55887 z"
         inkscape:connector-curvature="0"
         style="stroke-width:2.77944398" />
    </g>
  </g>
</svg>
