<?xml version="1.0" encoding="UTF-8" standalone="no"?>
<svg
   xmlns:dc="http://purl.org/dc/elements/1.1/"
   xmlns:cc="http://creativecommons.org/ns#"
   xmlns:rdf="http://www.w3.org/1999/02/22-rdf-syntax-ns#"
   xmlns:svg="http://www.w3.org/2000/svg"
   xmlns="http://www.w3.org/2000/svg"
   xmlns:sodipodi="http://sodipodi.sourceforge.net/DTD/sodipodi-0.dtd"
   xmlns:inkscape="http://www.inkscape.org/namespaces/inkscape"
   height="595.92462"
   viewBox="0 0 612 297.96231"
   width="1224"
   version="1.1"
   id="svg6"
   sodipodi:docname="bike_map.svg"
   style="fill:#000000"
   inkscape:version="0.92.2 5c3e80d, 2017-08-06"
   inkscape:export-filename="/home/roman/workspace/android/projects/Etroped/app/src/main/res/drawable/bike_map.png"
   inkscape:export-xdpi="90"
   inkscape:export-ydpi="90">
  <metadata
     id="metadata12">
    <rdf:RDF>
      <cc:Work
         rdf:about="">
        <dc:format>image/svg+xml</dc:format>
        <dc:type
           rdf:resource="http://purl.org/dc/dcmitype/StillImage" />
        <dc:title />
      </cc:Work>
    </rdf:RDF>
  </metadata>
  <defs
     id="defs10" />
  <sodipodi:namedview
     pagecolor="#ffffff"
     bordercolor="#666666"
     borderopacity="1"
     objecttolerance="10"
     gridtolerance="10"
     guidetolerance="10"
     inkscape:pageopacity="0"
     inkscape:pageshadow="2"
     inkscape:window-width="1920"
     inkscape:window-height="1021"
     id="namedview8"
     showgrid="false"
     fit-margin-top="40"
     fit-margin-left="100"
     fit-margin-right="100"
     fit-margin-bottom="40"
     inkscape:zoom="0.43457605"
     inkscape:cx="281.13644"
     inkscape:cy="14.499873"
     inkscape:window-x="0"
     inkscape:window-y="31"
     inkscape:window-maximized="1"
     inkscape:current-layer="svg6" />
  <path
     d="M 227.02908,31.320416 H 384.97091 V 189.26225 H 227.02908 Z"
     id="path4"
     inkscape:connector-curvature="0"
     style="fill:none;stroke-width:6.58090973" />
  <path
     d="M 85.291338,174.63222 C 65.780271,174.63222 50,190.41248 50,209.92354 c 0,26.46851 35.291338,65.54104 35.291338,65.54104 0,0 35.291322,-39.07253 35.291322,-65.54104 0,-19.51106 -15.78027,-35.29132 -35.291322,-35.29132 z m 0,47.89538 c -6.957442,0 -12.604061,-5.64663 -12.604061,-12.60406 0,-6.95743 5.646619,-12.60404 12.604061,-12.60404 6.957422,0 12.604052,5.64661 12.604052,12.60404 0,6.95743 -5.64663,12.60406 -12.604052,12.60406 z"
     id="path2"
     inkscape:connector-curvature="0"
     style="stroke-width:5.04161882" />
  <path
     style="stroke-width:5.04161882"
     inkscape:connector-curvature="0"
     id="path821"
     d="m 526.70869,20 c -19.51107,0 -35.29135,15.78026 -35.29135,35.29133 0,26.468493 35.29135,65.54105 35.29135,65.54105 0,0 35.29131,-39.072557 35.29131,-65.54105 C 562,35.78026 546.21975,20 526.70869,20 Z m 0,47.895387 c -6.95744,0 -12.60406,-5.646627 -12.60406,-12.604057 0,-6.95744 5.64662,-12.60404 12.60406,-12.60404 6.9574,0 12.60404,5.6466 12.60404,12.60404 0,6.95743 -5.64664,12.604057 -12.60404,12.604057 z" />
  <path
     style="fill:none;stroke:#000000;stroke-width:7;stroke-linecap:butt;stroke-linejoin:miter;stroke-miterlimit:4;stroke-dasharray:none;stroke-opacity:1"
     d="m 85.29134,275.46458 c 0,0 36.19868,-35.53268 59.68756,-41.45128 23.01899,-5.8002 48.2126,15.48305 70.75862,8.05382 18.16965,-5.98716 23.9533,-32.75611 41.99495,-39.11858 22.66376,-7.99249 49.57132,14.04014 71.90916,5.17746 21.06643,-8.35824 25.20572,-41.08538 46.02187,-50.04878 25.01204,-10.77015 56.99829,12.63866 81.68881,1.15055 17.29707,-8.04806 18.34984,-37.67621 36.24223,-44.29605 10.5153,-3.89046 33.11415,5.90065 33.11415,5.90065"
     id="path866"
     inkscape:connector-curvature="0"
     sodipodi:nodetypes="csssssssc" />
</svg>
